<?xml version="1.0" encoding="utf-8"?>
<!-- Generator: Adobe Illustrator 17.0.0, SVG Export Plug-In . SVG Version: 6.00 Build 0)  -->
<!DOCTYPE svg PUBLIC "-//W3C//DTD SVG 1.1//EN" "http://www.w3.org/Graphics/SVG/1.1/DTD/svg11.dtd">
<svg version="1.1" id="Layer_1" xmlns="http://www.w3.org/2000/svg" xmlns:xlink="http://www.w3.org/1999/xlink" x="0px" y="0px"
	 width="246px" height="30px" viewBox="0 0 246 30" enable-background="new 0 0 246 30" xml:space="preserve">
<g>
	<path fill="#FFFFFF" d="M61.615,28.908h-6.393h-7.352l-0.32-0.319v-0.64l0.32-0.319h13.744v-3.836H47.871l-0.32-0.319V8.771
		l0.32-0.32h12.466l1.278,1.279V8.771l0.32-0.32h0.639l0.32,0.32v20.137H61.615z M48.83,22.516h12.785V11.648L59.698,9.73H48.83
		V22.516z"/>
	<path fill="#FFFFFF" d="M82.498,23.794H67.475l-0.32-0.319V8.771l0.32-0.32h14.703l0.32,0.32v8.311l-0.32,0.319h-2.237h-0.32
		h-9.909h-1.278v5.114h10.228h1.279h0.639h1.598l0.32,0.319V23.794z M68.434,16.123h12.785V9.73H68.434V16.123z"/>
	<path fill="#FFFFFF" d="M86.759,8.771l0.32-0.32h0.639l0.32,0.32V9.73l1.278-1.279h12.466l0.32,0.32v9.909v5.114h-0.639h-0.32
		l-0.32-0.319V9.73H89.956l-1.917,1.918v11.827l-0.32,0.319h-0.639l-0.32-0.319v-7.352V8.771z"/>
	<path fill="#FFFFFF" d="M121.386,8.451l0.32,0.32V9.41l-0.32,0.32h-0.959h-1.278h-1.279h-10.228v5.114h13.744l0.32,0.319v8.63
		h-1.279h-13.744l-0.32-0.319v-0.64l0.32-0.319h13.744v-6.393h-13.744l-0.32-0.32V8.771l0.32-0.32H121.386z"/>
	<path fill="#FFFFFF" d="M126.287,28.908l-0.32-0.319V8.771l0.32-0.32h0.639l0.32,0.32V9.73l1.278-1.279h12.466l0.32,0.32v13.745
		v1.278h-14.064v4.795l-0.32,0.319H126.287z M129.164,9.73l-1.917,1.918v10.868h12.785V9.73H129.164z"/>
	<path fill="#FFFFFF" d="M145.89,8.451h14.704l0.319,0.32v15.023h-1.278H145.89l-0.319-0.319V8.771L145.89,8.451z M146.849,22.516
		h12.786V9.73h-12.786V22.516z"/>
	<path fill="#FFFFFF" d="M165.175,8.771l0.319-0.32h0.64l0.319,0.32V9.73l1.279-1.279h12.466l0.319,0.32v9.909v5.114h-0.64h-0.319
		l-0.319-0.319V9.73h-10.868l-1.918,1.918v11.827l-0.319,0.319h-0.64l-0.319-0.319v-7.352V8.771z"/>
	<path fill="#FFFFFF" d="M199.802,8.451l0.319,0.32V9.41l-0.319,0.32h-0.959h-1.279h-1.278h-10.229v5.114h13.745l0.319,0.319v8.63
		h-1.278h-13.745l-0.319-0.319v-0.64l0.319-0.319h13.745v-6.393h-13.745l-0.319-0.32V8.771l0.319-0.32H199.802z"/>
	<path fill="#FFFFFF" d="M204.703,0.78h0.64l0.319,0.32v3.516v1.278h-0.959l-0.319-0.319V1.1L204.703,0.78z M204.703,8.451h0.64
		l0.319,0.32v15.023h-0.639h-0.32l-0.319-0.319V8.771L204.703,8.451z"/>
	<path fill="#FFFFFF" d="M223.988,23.794h-6.394l-7.671-7.671V8.771l0.319-0.32h0.64l0.319,0.32v6.712l7.032,7.032h5.754V8.771
		l0.319-0.32h0.64l0.319,0.32v15.023H223.988z"/>
	<path fill="#FFFFFF" d="M244.87,23.794h-15.023l-0.319-0.319V8.771l0.319-0.32h14.704l0.319,0.32v8.311l-0.319,0.319h-2.238h-0.319
		h-9.908h-1.279v5.114h10.229h1.278h0.64h1.599l0.319,0.319V23.794z M230.805,16.123h12.786V9.73h-12.786V16.123z"/>
</g>
<rect x="1" y="4.158" fill="#FFFFFF" width="8.519" height="1.347"/>
<rect x="10.81" y="4.158" fill="#FFFFFF" width="8.519" height="1.347"/>
<rect x="20.62" y="4.158" fill="#FFFFFF" width="8.519" height="1.347"/>
<rect x="30.43" y="4.158" fill="#FFFFFF" width="9.294" height="1.347"/>
<rect x="6.163" y="7.973" fill="#FFFFFF" width="13.166" height="1.347"/>
<rect x="6.163" y="11.791" fill="#FFFFFF" width="13.166" height="1.347"/>
<rect x="20.62" y="7.973" fill="#FFFFFF" width="13.941" height="1.347"/>
<rect x="20.62" y="11.791" fill="#FFFFFF" width="13.941" height="1.347"/>
<rect x="11.326" y="15.605" fill="#FFFFFF" width="18.071" height="1.347"/>
<rect x="11.326" y="19.423" fill="#FFFFFF" width="18.071" height="1.347"/>
<rect x="11.326" y="23.239" fill="#FFFFFF" width="18.071" height="1.347"/>
<rect x="11.326" y="27.056" fill="#FFFFFF" width="18.071" height="1.347"/>
<g>
</g>
<g>
</g>
<g>
</g>
<g>
</g>
<g>
</g>
<g>
</g>
</svg>
